<svg xmlns="http://www.w3.org/2000/svg" version="1.1" xmlns:xlink="http://www.w3.org/1999/xlink" xmlns:svgjs="http://svgjs.dev/svgjs" width="1000" height="1000" viewBox="0 0 1000 1000"><rect width="1000" height="1000" fill="#ffffff"></rect><g transform="matrix(0.7,0,0,0.7,149.57575758299913,298.7327582659802)"><svg viewBox="0 0 396 228" data-background-color="#1ebbd7" preserveAspectRatio="xMidYMid meet" height="575" width="1000" xmlns="http://www.w3.org/2000/svg" xmlns:xlink="http://www.w3.org/1999/xlink"><g id="tight-bounds" transform="matrix(1,0,0,1,0.2400000040967143,0.009766746227384715)"><svg viewBox="0 0 395.52 227.9804652194238" height="227.9804652194238" width="395.52"><g><svg viewBox="0 0 395.52 227.9804652194238" height="227.9804652194238" width="395.52"><g transform="matrix(1,0,0,1,0,137.12727469331435)"><svg viewBox="0 0 395.52 90.85319052610944" height="90.85319052610944" width="395.52"><g id="textblocktransform"><svg viewBox="0 0 395.52 90.85319052610944" height="90.85319052610944" width="395.52" id="textblock"><g><svg viewBox="0 0 395.52 49.00186967854039" height="49.00186967854039" width="395.52"><g transform="matrix(1,0,0,1,0,0)"><svg width="395.52" viewBox="0.15000000596046448 -35 287.7300109863281 35.650001525878906" height="49.00186967854039" data-palette-color="#010c80"><path d="M58.9-34.3L58.9-30.15 53.3-30.15 42.35 0.65 39.8 0.65 29.25-24.35 19.25 0.65 16.65 0.65 5.65-30.15 0.15-30.15 0.15-34.3 16.95-34.3 16.95-30.15 11.1-30.15 18.45-8.05 28.2-33.55 31-33.55 41.2-8 48.25-30.15 42.15-30.15 42.15-34.3 58.9-34.3ZM94.7-23.3L90.1-23.3 90.1-30.15 72.3-30.15 72.3-19.2 80.2-19.2 80.2-23.85 84.2-23.85 84.2-10.75 80.2-10.75 80.2-15.4 72.3-15.4 72.3-4.15 90.1-4.15 90.1-11 94.7-11 94.7 0 60.8 0 60.8-4.15 67.2-4.15 67.2-30.15 60.8-30.15 60.8-34.3 94.7-34.3 94.7-23.3ZM126.05-17.75Q133.69-15.95 133.69-9.35L133.69-9.35Q133.69-4.85 130.3-2.43 126.9 0 120.6 0L120.6 0 100.25 0 100.25-4.15 106.7-4.15 106.7-30.15 100.25-30.15 100.25-34.3 119.8-34.3Q125.25-34.3 128.22-31.85 131.19-29.4 131.19-25.4L131.19-25.4Q131.19-22.7 129.82-20.78 128.44-18.85 126.05-17.75L126.05-17.75ZM119.45-30.15L111.8-30.15 111.8-19.2 118.55-19.2Q122.05-19.2 124.02-20.58 126-21.95 126-24.8L126-24.8Q126-27.55 124.15-28.85 122.3-30.15 119.45-30.15L119.45-30.15ZM120.1-4.15Q128.5-4.15 128.5-9.75L128.5-9.75Q128.5-12.65 126.27-14 124.05-15.35 120.05-15.4L120.05-15.4 111.8-15.4 111.8-4.15 120.1-4.15ZM168.39-10.15L171.74-7.35Q169.29-3.75 165.52-1.55 161.74 0.65 156.59 0.65L156.59 0.65Q151.69 0.65 147.62-1.63 143.54-3.9 141.19-7.95 138.84-12 138.84-17.1L138.84-17.1Q138.84-22.35 141.14-26.43 143.44-30.5 147.29-32.75 151.14-35 155.59-35L155.59-35Q159.19-35 161.97-33.7 164.74-32.4 166.64-30.05L166.64-30.05 166.69-34.3 171.34-34.3 171.34-23.15 168.04-22.85Q164.44-30.85 156.34-30.85L156.34-30.85Q153.09-30.85 150.32-29.18 147.54-27.5 145.87-24.38 144.19-21.25 144.19-17.15L144.19-17.15Q144.19-13.25 145.84-10.18 147.49-7.1 150.32-5.35 153.14-3.6 156.59-3.6L156.59-3.6Q160.64-3.6 163.47-5.35 166.29-7.1 168.39-10.15L168.39-10.15ZM203.19-11.9L208.04-11.9 208.04 0 175.89 0 175.89-4.15 182.34-4.15 182.34-30.15 175.89-30.15 175.89-34.3 193.89-34.3 193.89-30.15 187.49-30.15 187.49-4.15 203.19-4.15 203.19-11.9ZM252.34-34.3L252.34-30.15 245.89-30.15 245.89-13.25Q245.89-9.3 243.94-6.13 241.99-2.95 238.49-1.15 234.99 0.65 230.49 0.65L230.49 0.65Q225.89 0.65 222.39-1.15 218.89-2.95 216.99-6.1 215.09-9.25 215.09-13.25L215.09-13.25 215.09-30.15 208.64-30.15 208.64-34.3 226.34-34.3 226.34-30.15 220.29-30.15 220.24-13.4Q220.24-10.6 221.54-8.38 222.84-6.15 225.16-4.9 227.49-3.65 230.49-3.65L230.49-3.65Q233.44-3.65 235.79-4.9 238.14-6.15 239.44-8.4 240.74-10.65 240.74-13.45L240.74-13.45 240.69-30.15 234.59-30.15 234.59-34.3 252.34-34.3ZM280.24-17.75Q287.88-15.95 287.88-9.35L287.88-9.35Q287.88-4.85 284.49-2.43 281.09 0 274.79 0L274.79 0 254.44 0 254.44-4.15 260.88-4.15 260.88-30.15 254.44-30.15 254.44-34.3 273.99-34.3Q279.44-34.3 282.41-31.85 285.38-29.4 285.38-25.4L285.38-25.4Q285.38-22.7 284.01-20.78 282.63-18.85 280.24-17.75L280.24-17.75ZM273.63-30.15L265.99-30.15 265.99-19.2 272.74-19.2Q276.24-19.2 278.21-20.58 280.19-21.95 280.19-24.8L280.19-24.8Q280.19-27.55 278.34-28.85 276.49-30.15 273.63-30.15L273.63-30.15ZM274.29-4.15Q282.69-4.15 282.69-9.75L282.69-9.75Q282.69-12.65 280.46-14 278.24-15.35 274.24-15.4L274.24-15.4 265.99-15.4 265.99-4.15 274.29-4.15Z" opacity="1" transform="matrix(1,0,0,1,0,0)" fill="#000000" class="wordmark-text-0" data-fill-palette-color="primary" id="text-0"></path></svg></g></svg></g><g transform="matrix(1,0,0,1,130.16634792757054,60.57003506477149)"><svg viewBox="0 0 135.18730414485893 30.28315546133796" height="30.28315546133796" width="135.18730414485893"><g transform="matrix(1,0,0,1,0,0)"><svg width="135.18730414485893" viewBox="1.7599999904632568 -37.70000076293945 176.10000610351562 39.459999084472656" height="30.28315546133796" data-palette-color="#77d4fc"><path d="M24.56-16.11L24.56-16.11Q24.56-14.7 24.34-12.92 24.12-11.13 23.66-9.28 23.19-7.42 22.44-5.66 21.68-3.91 20.58-2.51 19.48-1.12 18.04-0.29 16.6 0.54 14.7 0.54L14.7 0.54Q12.7 0.54 11.06-0.39 9.42-1.32 8.25-2.93L8.25-2.93Q8.11-1.61 7.18-0.61 6.25 0.39 4.83 0.39L4.83 0.39Q4 0.39 3.44-0.44 2.88-1.27 2.54-2.56 2.2-3.86 2.03-5.42 1.86-6.98 1.81-8.45 1.76-9.91 1.76-11.08 1.76-12.26 1.76-12.74L1.76-12.74Q1.76-14.4 1.78-16.06 1.81-17.72 1.86-19.43L1.86-19.43Q1.86-20.26 1.83-21.92 1.81-23.58 1.86-25.61 1.9-27.64 2.08-29.76 2.25-31.88 2.69-33.64 3.13-35.4 3.91-36.52 4.69-37.65 5.91-37.7L5.91-37.7Q6.88-37.7 7.57-37.01 8.25-36.33 8.72-35.21 9.18-34.08 9.45-32.69 9.72-31.3 9.84-29.91 9.96-28.52 9.99-27.27 10.01-26.03 10.01-25.24L10.01-25.24Q10.01-25.1 9.99-24.58 9.96-24.07 9.96-23.49 9.96-22.9 9.96-22.44 9.96-21.97 9.96-21.92L9.96-21.92Q10.4-22.85 11.23-23.73 12.06-24.61 13.09-25.29 14.11-25.98 15.23-26.42 16.36-26.86 17.38-26.86L17.38-26.86Q19.43-26.86 20.83-25.81 22.22-24.76 23.05-23.14 23.88-21.53 24.22-19.65 24.56-17.77 24.56-16.11ZM17.38-14.65L17.38-14.65Q17.38-15.23 17.31-15.92 17.24-16.6 16.97-17.19 16.7-17.77 16.24-18.16 15.77-18.55 15.04-18.55L15.04-18.55Q14.26-18.55 13.5-18.21 12.74-17.87 12.06-17.33 11.38-16.8 10.79-16.19 10.21-15.58 9.77-14.99L9.77-14.99 9.28-10.64Q10.06-9.52 11.18-8.86 12.3-8.2 13.72-8.2L13.72-8.2Q14.79-8.2 15.5-8.89 16.21-9.57 16.63-10.57 17.04-11.57 17.21-12.7 17.38-13.82 17.38-14.65ZM48-8.69L48-8.69Q48-7.03 46.95-5.44 45.9-3.86 44.31-2.61 42.72-1.37 40.92-0.61 39.11 0.15 37.6 0.15L37.6 0.15Q35.01 0.15 32.98-1.15 30.95-2.44 29.59-4.44 28.22-6.45 27.51-8.86 26.8-11.28 26.8-13.57L26.8-13.57Q26.8-16.02 27.49-18.8 28.17-21.58 29.56-23.93 30.95-26.27 33.08-27.83 35.2-29.39 38.13-29.39L38.13-29.39Q39.79-29.39 41.31-28.83 42.82-28.27 43.94-27.25 45.07-26.22 45.75-24.8 46.43-23.39 46.43-21.63L46.43-21.63Q46.43-19.34 45.46-17.33 44.48-15.33 42.87-13.87 41.26-12.4 39.16-11.5 37.06-10.6 34.86-10.5L34.86-10.5Q35.06-9.08 36.01-8.45 36.96-7.81 38.28-7.81L38.28-7.81Q39.26-7.81 40.18-8.3 41.11-8.79 41.99-9.4 42.87-10.01 43.72-10.5 44.58-10.99 45.46-10.99L45.46-10.99Q46.43-10.99 47.21-10.35 48-9.72 48-8.69ZM40.09-20.65L40.09-20.65Q40.09-21.29 39.74-21.97 39.4-22.66 38.67-22.66L38.67-22.66Q37.6-22.66 36.86-22.09 36.13-21.53 35.64-20.68 35.15-19.82 34.89-18.85 34.62-17.87 34.57-17.04L34.57-17.04Q35.25-17.19 36.2-17.43 37.16-17.68 38.01-18.09 38.86-18.51 39.48-19.14 40.09-19.78 40.09-20.65ZM64.25-26.86L64.25-26.86Q64.25-25.44 63.3-24.76 62.35-24.07 61.18-23.46 60-22.85 59.05-22.02 58.1-21.19 58.1-19.53L58.1-19.53Q58.1-18.65 58.52-18.02 58.93-17.38 59.54-16.87 60.15-16.36 60.88-15.82 61.62-15.28 62.23-14.6 62.84-13.92 63.25-12.94 63.67-11.96 63.67-10.55L63.67-10.55Q63.67-8.5 62.62-6.52 61.57-4.54 59.93-3 58.3-1.46 56.25-0.54 54.19 0.39 52.19 0.39L52.19 0.39Q51.36 0.39 50.53 0.27 49.7 0.15 49.04-0.2 48.38-0.54 47.94-1.15 47.5-1.76 47.5-2.73L47.5-2.73Q47.5-4.1 48.04-4.86 48.58-5.62 49.41-6.05 50.24-6.49 51.19-6.74 52.14-6.98 52.97-7.35 53.8-7.71 54.34-8.3 54.88-8.89 54.88-9.96L54.88-9.96Q54.88-10.99 54.07-12.08 53.27-13.18 52.29-14.43 51.31-15.67 50.51-17.09 49.7-18.51 49.7-20.21L49.7-20.21Q49.7-22.31 50.56-24.1 51.41-25.88 52.85-27.2 54.29-28.52 56.15-29.27 58-30.03 60.05-30.03L60.05-30.03Q60.83-30.03 61.59-29.88 62.35-29.74 62.93-29.37 63.52-29 63.89-28.39 64.25-27.78 64.25-26.86ZM77.58 1.76L77.58 1.76Q74.11 1.76 72.18 0.85 70.26-0.05 69.3-1.71 68.35-3.37 68.16-5.71 67.96-8.06 67.96-10.94L67.96-10.94Q67.96-13.23 68.11-15.55 68.25-17.87 68.55-20.51L68.55-20.51Q67.86-20.51 67.47-20.48 67.08-20.46 66.84-20.46L66.84-20.46Q65.28-20.46 64.13-21.14 62.98-21.83 62.98-23.24L62.98-23.24Q62.98-24.12 63.64-24.8 64.3-25.49 65.32-25.98 66.35-26.46 67.55-26.76 68.74-27.05 69.82-27.15L69.82-27.15Q69.82-28.52 70.01-30.18 70.21-31.84 70.72-33.28 71.23-34.72 72.11-35.69 72.99-36.67 74.36-36.67L74.36-36.67Q75.14-36.67 75.75-36.21 76.36-35.74 76.75-35.03 77.14-34.33 77.34-33.45 77.53-32.57 77.53-31.74L77.53-31.74Q77.53-30.76 77.39-29.74 77.24-28.71 76.85-27.2L76.85-27.2Q77.68-27.29 77.97-27.32 78.26-27.34 78.51-27.34L78.51-27.34Q79.34-27.34 80.24-27.2 81.14-27.05 81.9-26.71 82.66-26.37 83.15-25.81 83.64-25.24 83.64-24.46L83.64-24.46Q83.64-23.58 82.93-22.9 82.22-22.22 81.14-21.73 80.07-21.24 78.85-20.97 77.63-20.7 76.56-20.61L76.56-20.61Q76.26-18.6 76.14-16.92 76.02-15.23 75.87-13.53L75.87-13.53Q75.77-12.7 75.7-11.84 75.63-10.99 75.63-10.11L75.63-10.11Q75.63-9.47 75.68-8.62 75.72-7.76 76.02-6.98 76.31-6.2 76.95-5.64 77.58-5.08 78.7-5.08L78.7-5.08Q79.39-5.08 80.12-5.2 80.85-5.32 81.58-5.32L81.58-5.32Q82.85-5.32 83.42-4.44 83.98-3.56 83.98-2.2L83.98-2.2Q83.98-1.17 83.37-0.42 82.76 0.34 81.83 0.81 80.9 1.27 79.75 1.51 78.61 1.76 77.58 1.76ZM114.83-18.75L114.83-18.75Q114.83-18.51 114.78-18.24 114.73-17.97 114.64-17.72L114.64-17.72Q114.2-16.6 113.27-15.84 112.34-15.09 111.07-15.09L111.07-15.09Q109.17-15.09 108.48-16.99L108.48-16.99Q108.39-17.24 108.39-17.55 108.39-17.87 108.34-18.21L108.34-18.21 108.34-19.63Q108.24-20.31 108-20.7 107.75-21.09 107.17-21.09L107.17-21.09Q106.34-21.09 105.58-20.04 104.82-18.99 104.26-17.55 103.7-16.11 103.36-14.6 103.01-13.09 103.01-12.16L103.01-12.16Q103.01-11.43 103.11-10.38 103.21-9.33 103.5-8.35 103.8-7.37 104.31-6.67 104.82-5.96 105.65-5.96L105.65-5.96Q106.48-5.96 107.19-6.47 107.9-6.98 108.58-7.67L108.58-7.67Q109.22-8.25 109.97-8.89 110.73-9.52 111.71-9.52L111.71-9.52Q112.93-9.52 113.63-8.64 114.34-7.76 114.34-6.64L114.34-6.64Q114.34-4.98 113.46-3.54 112.59-2.1 111.27-1.05 109.95 0 108.34 0.61 106.73 1.22 105.26 1.22L105.26 1.22Q102.62 1.22 100.79-0.1 98.96-1.42 97.84-3.44 96.72-5.47 96.23-7.86 95.74-10.25 95.74-12.4L95.74-12.4Q95.74-14.89 96.42-17.8 97.11-20.7 98.52-23.19 99.94-25.68 102.16-27.34 104.38-29 107.46-29L107.46-29Q109.36-29 110.75-28.17 112.15-27.34 113.05-26 113.95-24.66 114.42-23 114.88-21.34 114.88-19.73L114.88-19.73Q114.88-19.48 114.88-19.24 114.88-18.99 114.83-18.75ZM126.69-29.59L126.69-29.59Q126.69-26.95 126.47-24.29 126.25-21.63 126.25-18.95L126.25-18.95Q126.25-15.48 126.47-12.01 126.69-8.54 126.69-5.03L126.69-5.03Q126.69-4.15 126.6-3.05 126.5-1.95 126.13-1.03 125.77-0.1 125.03 0.54 124.3 1.17 123.08 1.17L123.08 1.17Q121.91 1.17 121.05 0.02 120.2-1.12 119.64-2.91 119.08-4.69 118.71-6.88 118.34-9.08 118.17-11.16 118-13.23 117.93-14.97 117.86-16.7 117.86-17.53L117.86-17.53Q117.86-18.46 117.93-20.21 118-21.97 118.25-24.02 118.49-26.07 118.91-28.2 119.32-30.32 120-32.06 120.69-33.79 121.64-34.89 122.59-35.99 123.91-35.99L123.91-35.99Q124.99-35.99 125.55-35.28 126.11-34.57 126.35-33.57 126.6-32.57 126.65-31.47 126.69-30.37 126.69-29.59ZM151.79-13.96L151.79-13.96Q151.79-11.28 151.25-8.64 150.71-6.01 149.45-3.93 148.18-1.86 146.05-0.59 143.93 0.68 140.75 0.68L140.75 0.68Q137.63 0.68 135.53-0.56 133.43-1.81 132.18-3.86 130.94-5.91 130.43-8.5 129.91-11.08 129.91-13.77L129.91-13.77Q129.91-16.7 130.6-19.58L130.6-19.58Q130.74-20.36 131.16-21.75 131.57-23.14 132.23-24.49 132.89-25.83 133.75-26.81 134.6-27.78 135.63-27.78L135.63-27.78Q136.6-27.78 137.19-27.25 137.78-26.71 138.12-25.9 138.46-25.1 138.56-24.19 138.65-23.29 138.65-22.56L138.65-22.56Q138.65-21.44 138.48-20.36 138.31-19.29 138.12-18.21L138.12-18.21Q137.92-16.75 137.75-15.28 137.58-13.82 137.58-12.35L137.58-12.35Q137.58-11.62 137.65-10.72 137.73-9.81 138.02-8.98 138.31-8.15 138.85-7.59 139.39-7.03 140.36-7.03L140.36-7.03Q141.63-7.03 142.39-7.71 143.15-8.4 143.51-9.42 143.88-10.45 143.98-11.62 144.07-12.79 144.07-13.77L144.07-13.77Q144.07-15.92 143.78-17.99 143.49-20.07 143.24-22.22L143.24-22.22Q143.2-22.46 143.2-22.9L143.2-22.9Q143.2-23.63 143.44-24.37 143.68-25.1 144.12-25.68 144.56-26.27 145.2-26.64 145.83-27 146.61-27L146.61-27Q147.69-27 148.52-26.25 149.35-25.49 149.91-24.29 150.47-23.1 150.84-21.61 151.2-20.12 151.42-18.68 151.64-17.24 151.72-15.97 151.79-14.7 151.79-13.96ZM177.86-16.11L177.86-16.11Q177.86-14.7 177.64-12.92 177.42-11.13 176.96-9.28 176.49-7.42 175.74-5.66 174.98-3.91 173.88-2.51 172.78-1.12 171.34-0.29 169.9 0.54 168 0.54L168 0.54Q166 0.54 164.36-0.39 162.72-1.32 161.55-2.93L161.55-2.93Q161.41-1.61 160.48-0.61 159.55 0.39 158.13 0.39L158.13 0.39Q157.3 0.39 156.74-0.44 156.18-1.27 155.84-2.56 155.5-3.86 155.33-5.42 155.16-6.98 155.11-8.45 155.06-9.91 155.06-11.08 155.06-12.26 155.06-12.74L155.06-12.74Q155.06-14.4 155.08-16.06 155.11-17.72 155.16-19.43L155.16-19.43Q155.16-20.26 155.13-21.92 155.11-23.58 155.16-25.61 155.2-27.64 155.38-29.76 155.55-31.88 155.99-33.64 156.43-35.4 157.21-36.52 157.99-37.65 159.21-37.7L159.21-37.7Q160.19-37.7 160.87-37.01 161.55-36.33 162.02-35.21 162.48-34.08 162.75-32.69 163.02-31.3 163.14-29.91 163.26-28.52 163.29-27.27 163.31-26.03 163.31-25.24L163.31-25.24Q163.31-25.1 163.29-24.58 163.26-24.07 163.26-23.49 163.26-22.9 163.26-22.44 163.26-21.97 163.26-21.92L163.26-21.92Q163.7-22.85 164.53-23.73 165.36-24.61 166.39-25.29 167.41-25.98 168.53-26.42 169.66-26.86 170.68-26.86L170.68-26.86Q172.73-26.86 174.13-25.81 175.52-24.76 176.35-23.14 177.18-21.53 177.52-19.65 177.86-17.77 177.86-16.11ZM170.68-14.65L170.68-14.65Q170.68-15.23 170.61-15.92 170.54-16.6 170.27-17.19 170-17.77 169.54-18.16 169.07-18.55 168.34-18.55L168.34-18.55Q167.56-18.55 166.8-18.21 166.04-17.87 165.36-17.33 164.68-16.8 164.09-16.19 163.51-15.58 163.07-14.99L163.07-14.99 162.58-10.64Q163.36-9.52 164.48-8.86 165.61-8.2 167.02-8.2L167.02-8.2Q168.1-8.2 168.8-8.89 169.51-9.57 169.93-10.57 170.34-11.57 170.51-12.7 170.68-13.82 170.68-14.65Z" opacity="1" transform="matrix(1,0,0,1,0,0)" fill="#000000" class="slogan-text-1" data-fill-palette-color="secondary" id="text-1"></path></svg></g></svg></g></svg></g></svg></g><g transform="matrix(1,0,0,1,117.81947637836694,0)"><svg viewBox="0 0 159.8810472432661 125.55910930708326" height="125.55910930708326" width="159.8810472432661"><g><svg xmlns="http://www.w3.org/2000/svg" xmlns:xlink="http://www.w3.org/1999/xlink" version="1.1" baseProfile="basic" x="8" y="0" viewBox="5 10 80.10000610351562 69.9000015258789" xml:space="preserve" height="125.55910930708326" width="143.8810472432661" class="icon-icon-0" data-fill-palette-color="accent" id="icon-0"><g fill="#00ffef" data-fill-palette-color="accent"><path fill-rule="evenodd" clip-rule="evenodd" d="M77.2 10H12.8C8.2 10 5 13.8 5 17.9v54.1c0 4.1 3.2 7.9 7.8 7.9h64.5c4.6 0 7.8-3.8 7.8-7.9V17.9C85 13.8 81.8 10 77.2 10zM12.8 17h64.5c1 0 1.8 0.6 1.8 0.9V33H11V17.9C11 17.6 11.7 17 12.8 17zM77.2 73H12.8c-1 0-1.8-0.6-1.8-0.9V37h68v35.1C79 72.4 78.3 73 77.2 73z" fill="#000000" data-fill-palette-color="accent"></path><path fill-rule="evenodd" clip-rule="evenodd" d="M71.4 27.8c1.4 0 2.6-1.2 2.6-2.7 0-1.5-1.2-2.7-2.6-2.7-1.4 0-2.6 1.2-2.6 2.7C68.8 26.6 70 27.8 71.4 27.8z" fill="#000000" data-fill-palette-color="accent"></path><path fill-rule="evenodd" clip-rule="evenodd" d="M60.9 27.8c1.4 0 2.6-1.2 2.6-2.7 0-1.5-1.2-2.7-2.6-2.7-1.5 0-2.6 1.2-2.6 2.7C58.2 26.6 59.4 27.8 60.9 27.8z" fill="#000000" data-fill-palette-color="accent"></path><path fill-rule="evenodd" clip-rule="evenodd" d="M50.3 27.8c1.4 0 2.6-1.2 2.6-2.7 0-1.5-1.2-2.7-2.6-2.7-1.5 0-2.7 1.2-2.7 2.7C47.6 26.6 48.8 27.8 50.3 27.8z" fill="#000000" data-fill-palette-color="accent"></path></g></svg></g></svg></g><g><rect width="117.81947637836694" height="4.419039177540281" y="120.14007012954298" x="277.700523621633" fill="#000000" data-fill-palette-color="accent"></rect><rect width="117.81947637836694" height="4.419039177540281" y="120.14007012954298" x="0" fill="#000000" data-fill-palette-color="accent"></rect><rect width="117.81947637836694" height="4.419039177540281" y="111.30199177446242" x="277.700523621633" fill="#000000" data-fill-palette-color="accent"></rect><rect width="117.81947637836694" height="4.419039177540281" y="111.30199177446242" x="0" fill="#000000" data-fill-palette-color="accent"></rect></g></svg></g><defs></defs></svg><rect width="395.52" height="227.9804652194238" fill="none" stroke="none" visibility="hidden"></rect></g></svg></g></svg>